<svg class="bg-mountains" xmlns="http://www.w3.org/2000/svg" viewBox="0 0 1440 320" preserveAspectRatio="none">
    <!-- Back layer -->
    <path fill="#e8ece4" d="M0,320 L0,180 L150,50 L250,180 L400,20 L600,250 L750,80 L900,220 L1100,30 L1250,180 L1440,100 L1440,320 Z"/>
    <path fill="#ffffff" d="M150,50 L181,90 L160,80 L140,95 L120,85 L119,77 Z M400,20 L435,60 L405,50 L380,65 L372,52 Z M750,80 L785,120 L755,110 L720,125 Z M1100,30 L1138,70 L1100,60 L1065,75 Z"/>
    
    <!-- Middle layer -->
    <path fill="#d1dbca" d="M0,320 L0,220 L200,100 L350,260 L550,60 L750,250 L950,100 L1150,280 L1350,120 L1440,200 L1440,320 Z"/>
    <path fill="#ffffff" d="M200,100 L233,135 L200,120 L166,140 Z M550,60 L583,95 L550,80 L516,100 Z M950,100 L983,135 L950,120 L916,140 Z M1350,120 L1377,145 L1350,135 L1320,150 Z"/>
    
    <!-- Front layer -->
    <path fill="#baccb0" d="M0,320 L0,270 L250,150 L450,300 L700,150 L950,300 L1200,180 L1440,250 L1440,320 Z"/>
    <path fill="#ffffff" d="M250,150 L276,170 L250,160 L220,175 Z M700,150 L726,170 L700,160 L670,175 Z M1200,180 L1226,200 L1200,190 L1170,205 Z"/>
</svg>
